<?xml version="1.0" encoding="utf-8"?>
<!-- Generator: Adobe Illustrator 21.0.0, SVG Export Plug-In . SVG Version: 6.00 Build 0)  -->
<svg version="1.1" id="Layer_1" xmlns="http://www.w3.org/2000/svg" xmlns:xlink="http://www.w3.org/1999/xlink" x="0px" y="0px"
	 viewBox="0 0 32 32" style="enable-background:new 0 0 32 32;" xml:space="preserve">
<style type="text/css">
	.st0{fill:#F58435;}
	.st1{fill:#FFFFFF;}
	.st2{fill:#424242;}
	.st3{fill:#616161;}
	.st4{fill:#757575;}
	.st5{fill:#1797DD;}
	.st6{fill:#22354C;}
</style>
<path class="st5" d="M27.186,14.22c-0.123-2.338-2.461-3.199-2.461-3.199c-1.969,2.092-0.246,5.291-0.246,5.291
	c-0.984,0.984-2.83,0.861-2.83,0.861H1.101c0,0-1.846,9.966,10.212,9.966s15.38-9.597,15.38-9.597C31,17.911,31,14.958,31,14.958
	C29.893,13.605,27.186,14.22,27.186,14.22z M7.266,23.079c-0.951,0-1.723-0.771-1.723-1.723s0.771-1.723,1.723-1.723
	c0.951,0,1.723,0.771,1.723,1.723S8.217,23.079,7.266,23.079z M5.733,12.989H2.411v3.322h3.322V12.989z M9.776,12.989H6.454v3.322
	h3.322V12.989z M13.818,12.989h-3.322v3.322h3.322V12.989z M17.86,12.989h-3.322v3.322h3.322V12.989z M9.776,8.925H6.454v3.322
	h3.322V8.925z M13.818,8.925h-3.322v3.322h3.322V8.925z M17.86,8.925h-3.322v3.322h3.322V8.925z M17.86,4.861h-3.322v3.322h3.322
	V4.861z M21.903,12.989h-3.322v3.322h3.322V12.989z"/>
</svg>
