<?xml version="1.0" encoding="utf-8"?>
<!-- Generator: Adobe Illustrator 21.0.2, SVG Export Plug-In . SVG Version: 6.00 Build 0)  -->
<svg version="1.1" id="Layer_1" xmlns="http://www.w3.org/2000/svg" xmlns:xlink="http://www.w3.org/1999/xlink" x="0px" y="0px"
	 viewBox="0 0 32 32" style="enable-background:new 0 0 32 32;" xml:space="preserve">
<style type="text/css">
	.st0{fill:#FFFFFF;}
</style>
<path class="st0" d="M27.2,14.2c-0.1-2.3-2.5-3.2-2.5-3.2c-2,2.1-0.2,5.3-0.2,5.3c-1,1-2.8,0.9-2.8,0.9H1.1c0,0-1.8,10,10.2,10
	s15.4-9.6,15.4-9.6C31,17.9,31,15,31,15C29.9,13.6,27.2,14.2,27.2,14.2z M7.3,23.1c-1,0-1.7-0.8-1.7-1.7s0.8-1.7,1.7-1.7
	c1,0,1.7,0.8,1.7,1.7S8.2,23.1,7.3,23.1z M5.7,13H2.4v3.3h3.3V13z M9.8,13H6.5v3.3h3.3V13z M13.8,13h-3.3v3.3h3.3
	C13.8,16.3,13.8,13,13.8,13z M17.9,13h-3.3v3.3h3.3V13z M9.8,8.9H6.5v3.3h3.3V8.9z M13.8,8.9h-3.3v3.3h3.3
	C13.8,12.2,13.8,8.9,13.8,8.9z M17.9,8.9h-3.3v3.3h3.3V8.9z M17.9,4.9h-3.3v3.3h3.3V4.9z M21.9,13h-3.3v3.3h3.3V13z"/>
</svg>
