<?xml version="1.0" encoding="utf-8"?>
<!-- Generator: Adobe Illustrator 21.0.2, SVG Export Plug-In . SVG Version: 6.00 Build 0)  -->
<svg version="1.1" id="Layer_1" xmlns="http://www.w3.org/2000/svg" xmlns:xlink="http://www.w3.org/1999/xlink" x="0px" y="0px"
	 viewBox="0 0 32 32" style="enable-background:new 0 0 32 32;" xml:space="preserve">
<style type="text/css">
	.st0{fill:#FFFFFF;}
</style>
<g>
	<rect x="15.7" y="20.6" class="st0" width="0.5" height="5.5"/>
	<rect x="17.4" y="20.6" class="st0" width="0.5" height="5.5"/>
	<rect x="14.1" y="20.6" class="st0" width="0.5" height="5.5"/>
	<rect x="20.7" y="20.6" class="st0" width="0.5" height="5.5"/>
	<rect x="19" y="20.6" class="st0" width="0.5" height="5.5"/>
	<polygon class="st0" points="13,20.6 12.5,20.6 12.5,26 13,26 	"/>
	<path class="st0" d="M16,2C8.3,2,2,8.3,2,16s6.3,14,14,14s14-6.3,14-14S23.7,2,16,2z M16,3.6c1.4,0,2.5,1.1,2.5,2.5
		c0,1.4-1.1,2.5-2.5,2.5s-2.5-1.1-2.5-2.5C13.5,4.7,14.6,3.6,16,3.6z M17,13.8c-0.3-0.2-0.6-0.2-1-0.2c-0.4,0-0.7,0.1-1,0.2
		l-0.6-5.5c0.5,0.3,1,0.5,1.6,0.5s1.2-0.2,1.6-0.5L17,13.8z M17.8,15.6c0,1-0.8,1.8-1.8,1.8s-1.8-0.8-1.8-1.8c0-1,0.8-1.8,1.8-1.8
		S17.8,14.7,17.8,15.6z M7.2,20l2.6-4l4.6-1.6c-0.3,0.4-0.4,0.8-0.4,1.3c0,0.8,0.4,1.5,1.1,1.8l-4.1,0.2l-3,2.9L7.2,20z M22.1,26.6
		H9.9V20h12.2V26.6z M24.1,20.6l-3-2.9L17,17.5c0.6-0.4,1.1-1,1.1-1.8c0-0.5-0.2-0.9-0.4-1.3l4.6,1.6l2.6,4L24.1,20.6z"/>
	<circle class="st0" cx="16" cy="6.1" r="0.9"/>
	<rect x="10.8" y="20.6" class="st0" width="0.5" height="5.5"/>
	<circle class="st0" cx="16" cy="15.6" r="0.6"/>
</g>
</svg>
