<?xml version="1.0" encoding="utf-8"?>
<!-- Generator: Adobe Illustrator 21.0.0, SVG Export Plug-In . SVG Version: 6.00 Build 0)  -->
<svg version="1.1" id="Layer_1" xmlns="http://www.w3.org/2000/svg" xmlns:xlink="http://www.w3.org/1999/xlink" x="0px" y="0px"
	 viewBox="0 0 32 32" style="enable-background:new 0 0 32 32;" xml:space="preserve">
<style type="text/css">
	.st0{fill:#F58435;}
	.st1{fill:#FFFFFF;}
	.st2{fill:#424242;}
	.st3{fill:#616161;}
	.st4{fill:#757575;}
	.st5{fill:#1797DD;}
	.st6{fill:#22354C;}
</style>
<g>
	<circle class="st0" cx="16" cy="16" r="14"/>
	<g>
		<g>
			<path class="st1" d="M13.901,15.637c0-0.471,0.157-0.904,0.419-1.255l-4.591,1.601l-2.561,3.972l0.738,0.617l2.951-2.901
				l4.112-0.207C14.332,17.105,13.901,16.422,13.901,15.637z"/>
			<path class="st1" d="M16.973,13.778l0.642-5.48C17.161,8.628,16.604,8.824,16,8.824c-0.604,0-1.161-0.197-1.615-0.526l0.642,5.48
				c0.291-0.153,0.622-0.24,0.973-0.24C16.352,13.538,16.682,13.625,16.973,13.778z"/>
			<path class="st1" d="M22.271,15.983l-4.591-1.601c0.262,0.35,0.419,0.784,0.419,1.255c0,0.785-0.431,1.468-1.069,1.828
				l4.112,0.207l2.951,2.901l0.738-0.617L22.271,15.983z"/>
			<path class="st1" d="M16,8.537c1.363,0,2.468-1.105,2.468-2.468S17.363,3.602,16,3.602s-2.468,1.105-2.468,2.468
				S14.637,8.537,16,8.537z M16,5.198c0.481,0,0.871,0.39,0.871,0.871S16.481,6.941,16,6.941c-0.481,0-0.871-0.39-0.871-0.871
				S15.519,5.198,16,5.198z"/>
			<path class="st1" d="M16,13.862c-0.98,0-1.775,0.795-1.775,1.775c0,0.98,0.795,1.775,1.775,1.775c0.98,0,1.775-0.795,1.775-1.775
				C17.775,14.657,16.98,13.862,16,13.862z M16,16.264c-0.346,0-0.627-0.281-0.627-0.627c0-0.346,0.281-0.627,0.627-0.627
				c0.346,0,0.627,0.281,0.627,0.627C16.627,15.983,16.346,16.264,16,16.264z"/>
		</g>
		<path class="st1" d="M9.917,19.961v6.667h12.165v-6.667H9.917z M11.324,26.022h-0.52v-5.455h0.52V26.022z M12.97,26.022h-0.52
			v-5.455h0.52V26.022z M14.615,26.022h-0.52v-5.455h0.52V26.022z M16.26,26.022h-0.52v-5.455h0.52V26.022z M17.905,26.022h-0.52
			v-5.455h0.52V26.022z M19.55,26.022h-0.52v-5.455h0.52V26.022z M21.195,26.022h-0.52v-5.455h0.52V26.022z"/>
	</g>
</g>
</svg>
