<?xml version="1.0" encoding="utf-8"?>
<!-- Generator: Adobe Illustrator 21.0.2, SVG Export Plug-In . SVG Version: 6.00 Build 0)  -->
<svg version="1.1" id="Layer_1" xmlns="http://www.w3.org/2000/svg" xmlns:xlink="http://www.w3.org/1999/xlink" x="0px" y="0px"
	 viewBox="0 0 32 32" style="enable-background:new 0 0 32 32;" xml:space="preserve">
<style type="text/css">
	.st0{fill:#FFFFFF;}
</style>
<g>
	<polygon class="st0" points="28,22 22.5,18.8 22.5,13.3 16.6,16.8 16.6,23.6 21.8,20.6 27.1,23.7 	"/>
	<polygon class="st0" points="15.4,16.8 9.5,13.3 9.5,18.5 4,21.7 4.9,23.4 10,20.4 15.4,23.6 	"/>
	<polygon class="st0" points="16.9,9.4 16.9,2.6 15.1,2.6 15.1,9.4 10.1,12.3 10.1,12.3 16,15.7 21.9,12.3 21.9,12.3 	"/>
	<path class="st0" d="M16,31L3,23.5v-15L16,1l13,7.5v15L16,31z M5.8,21.9L16,27.8l10.2-5.9V10.1L16,4.2L5.8,10.1V21.9z"/>
</g>
</svg>
