<?xml version="1.0" encoding="utf-8"?>
<!-- Generator: Adobe Illustrator 21.0.0, SVG Export Plug-In . SVG Version: 6.00 Build 0)  -->
<svg version="1.1" id="Layer_1" xmlns="http://www.w3.org/2000/svg" xmlns:xlink="http://www.w3.org/1999/xlink" x="0px" y="0px"
	 viewBox="0 0 32 32" style="enable-background:new 0 0 32 32;" xml:space="preserve">
<style type="text/css">
	.st0{fill:#F58435;}
	.st1{fill:#FFFFFF;}
	.st2{fill:#424242;}
	.st3{fill:#616161;}
	.st4{fill:#757575;}
	.st5{fill:#1797DD;}
	.st6{fill:#22354C;}
</style>
<g>
	<polygon class="st2" points="28.035,22.031 22.494,18.832 22.494,13.34 16.585,16.751 16.585,23.564 21.765,20.573 27.099,23.652 	
		"/>
	<polygon class="st3" points="15.415,16.751 9.506,13.34 9.506,18.544 3.965,21.742 4.901,23.364 9.985,20.429 15.415,23.564 	"/>
	<polygon class="st4" points="16.936,9.444 16.936,2.628 15.064,2.628 15.064,9.445 10.091,12.316 10.091,12.327 16,15.738 
		21.909,12.327 21.909,12.316 	"/>
	<path class="st4" d="M16,31l-12.99-7.5V8.5L16,1l12.991,7.5V23.5L16,31z M5.817,21.879L16,27.758l10.183-5.879V10.121L16,4.242
		L5.817,10.121V21.879z"/>
</g>
</svg>
