<?xml version="1.0" encoding="utf-8"?>
<!-- Generator: Adobe Illustrator 21.0.0, SVG Export Plug-In . SVG Version: 6.00 Build 0)  -->
<svg version="1.1" id="Layer_1" xmlns="http://www.w3.org/2000/svg" xmlns:xlink="http://www.w3.org/1999/xlink" x="0px" y="0px"
	 viewBox="0 0 33 33" style="enable-background:new 0 0 33 33;" xml:space="preserve">
<style type="text/css">
	.st0{fill:#F58435;}
	.st1{fill:#FFFFFF;}
	.st2{fill:#424242;}
	.st3{fill:#616161;}
	.st4{fill:#757575;}
</style>
<g>
	<polygon class="st2" points="29.358,22.943 23.438,19.526 23.438,13.658 17.125,17.303 17.125,24.581 22.659,21.386 28.358,24.676 
			"/>
	<polygon class="st3" points="15.875,17.303 9.562,13.658 9.562,19.218 3.641,22.635 4.641,24.368 10.074,21.232 15.875,24.581 	"/>
	<polygon class="st4" points="17.5,9.496 17.5,2.213 15.5,2.213 15.5,9.496 10.187,12.563 10.187,12.575 16.5,16.22 22.813,12.575 
		22.813,12.564 	"/>
	<path class="st4" d="M16.5,32.526L2.621,24.513V8.487L16.5,0.474l13.88,8.013v16.027L16.5,32.526z M5.621,22.781L16.5,29.062
		l10.88-6.281V10.219L16.5,3.938L5.621,10.219V22.781z"/>
</g>
</svg>
