<?xml version="1.0" encoding="utf-8"?>
<!-- Generator: Adobe Illustrator 20.1.0, SVG Export Plug-In . SVG Version: 6.00 Build 0)  -->
<svg version="1.1" id="Layer_1" xmlns="http://www.w3.org/2000/svg" xmlns:xlink="http://www.w3.org/1999/xlink" x="0px" y="0px"
	 viewBox="0 0 39 32" style="enable-background:new 0 0 39 32;" xml:space="preserve">
<style type="text/css">
	.st0{fill:#E1B86F;}
	.st1{fill:#235280;}
	.st2{fill:#FAA327;}
	.st3{fill:#2589C5;}
	.st4{fill-rule:evenodd;clip-rule:evenodd;fill:#F8991D;}
	.st5{fill-rule:evenodd;clip-rule:evenodd;fill:#010101;}
	.st6{fill:#F0EFEF;}
	.st7{fill:#517EBF;}
	.st8{fill:#DC472F;}
	.st9{fill:#F3B41B;}
	.st10{fill:#FFFFFF;}
	.st11{fill:none;}
	.st12{fill:#323945;}
	.st13{fill:#1F5182;}
	.st14{fill:#16618B;}
	.st15{fill:#3EB790;}
	.st16{fill:#E7A825;}
	.st17{fill:#72CADA;}
	.st18{fill:#DF1766;}
	.st19{fill:#08AD89;}
	.st20{fill:#6E344E;}
	.st21{fill:#868F43;}
	.st22{fill:#D22433;}
	.st23{fill:#E2452A;}
	.st24{fill:#F36E2C;}
</style>
<path class="st14" d="M33.296,13.804c-0.152-2.883-3.035-3.945-3.035-3.945c-2.428,2.58-0.304,6.525-0.304,6.525
	c-1.214,1.214-3.49,1.062-3.49,1.062H1.125c0,0-2.276,12.292,12.595,12.292s18.969-11.836,18.969-11.836
	C38,18.357,38,14.715,38,14.715C36.634,13.046,33.296,13.804,33.296,13.804z M8.728,24.73c-1.173,0-2.124-0.951-2.124-2.124
	c0-1.173,0.951-2.124,2.124-2.124c1.173,0,2.124,0.951,2.124,2.124C10.852,23.779,9.901,24.73,8.728,24.73z M6.838,12.287H2.74
	v4.097h4.097V12.287z M11.823,12.287H7.726v4.097h4.097V12.287z M16.809,12.287h-4.097v4.097h4.097V12.287z M21.795,12.287h-4.097
	v4.097h4.097V12.287z M11.823,7.274H7.726v4.097h4.097V7.274z M16.809,7.274h-4.097v4.097h4.097V7.274z M21.795,7.274h-4.097v4.097
	h4.097V7.274z M21.795,2.262h-4.097v4.097h4.097V2.262z M26.78,12.287h-4.097v4.097h4.097V12.287z"/>
</svg>
