<?xml version="1.0" encoding="utf-8"?>
<!-- Generator: Adobe Illustrator 21.0.0, SVG Export Plug-In . SVG Version: 6.00 Build 0)  -->
<svg version="1.1" id="Layer_1" xmlns="http://www.w3.org/2000/svg" xmlns:xlink="http://www.w3.org/1999/xlink" x="0px" y="0px"
	 viewBox="0 0 43 57" style="enable-background:new 0 0 43 57;" xml:space="preserve">
<style type="text/css">
	.st0{fill:#FBDD8A;stroke:#F8BB16;stroke-miterlimit:10;}
	.st1{fill:none;stroke:#F8BB16;stroke-width:2;stroke-linecap:round;stroke-linejoin:round;stroke-miterlimit:10;}
	.st2{fill:#BDBDBD;}
	.st3{fill:#BADFAD;stroke:#75C05B;stroke-miterlimit:10;}
	.st4{fill:none;stroke:#75C05B;stroke-width:2;stroke-linecap:round;stroke-linejoin:round;stroke-miterlimit:10;}
</style>
<rect x="6" y="2.1360676" class="st3" width="31" height="52.8242188"/>
<path class="st2" d="M40.6191406,3.4524739H2.3808594c-1.1045696,0-2-0.8954303-2-1.9999999V0h42.2382812v1.452474
	C42.6191406,2.5570436,41.7237091,3.4524739,40.6191406,3.4524739z"/>
<path class="st2" d="M2.3808594,53.5475273h38.2382812c1.1045685,0,2,0.8954277,2,2V57H0.3808594v-1.4524727
	C0.3808594,54.442955,1.2762898,53.5475273,2.3808594,53.5475273z"/>
<g>
	<polyline class="st4" points="10.2020693,7.9170642 21.5,12.930953 32.7979317,7.9170642 	"/>
	<polyline class="st4" points="10.2020693,15.1740084 21.5,20.1878967 32.7979317,15.1740084 	"/>
	<polyline class="st4" points="10.2020693,22.430954 21.5,27.4448414 32.7979317,22.430954 	"/>
	<polyline class="st4" points="10.2020693,29.6878967 21.5,34.701786 32.7979317,29.6878967 	"/>
	<polyline class="st4" points="10.2020693,36.9448433 21.5,41.9587326 32.7979317,36.9448433 	"/>
	<polyline class="st4" points="10.2020693,44.069046 21.5,49.0829353 32.7979317,44.069046 	"/>
</g>
</svg>
