<?xml version="1.0" encoding="utf-8"?>
<!-- Generator: Adobe Illustrator 21.0.2, SVG Export Plug-In . SVG Version: 6.00 Build 0)  -->
<svg version="1.1" id="Layer_1" xmlns="http://www.w3.org/2000/svg" xmlns:xlink="http://www.w3.org/1999/xlink" x="0px" y="0px"
	 viewBox="0 0 59.639 55.82" style="enable-background:new 0 0 59.639 55.82;" xml:space="preserve">
<style type="text/css">
	.st0{fill:#EFC319;}
	.st1{fill:#4EB96F;}
	.st2{fill:#3B97D2;}
</style>
<g>
	<path class="st0" d="M18.963,53.914c-0.507,0-1.129-0.359-1.383-0.798l-4.432-7.677c-0.254-0.439-0.254-1.158,0-1.597l4.432-7.677
		c0.254-0.439,0.876-0.798,1.383-0.798h8.865c0.507,0,1.129,0.359,1.383,0.798l4.432,7.677c0.254,0.439,0.254,1.158,0,1.597
		l-4.432,7.677c-0.254,0.439-0.876,0.798-1.383,0.798H18.963z"/>
	<path class="st1" d="M38.242,46.554c-0.507,0-1.129-0.359-1.383-0.798l-6.075-10.522c-0.254-0.439-0.254-1.158,0-1.597
		l6.075-10.522c0.254-0.439,0.876-0.798,1.383-0.798h12.15c0.507,0,1.129,0.359,1.383,0.798l6.075,10.522
		c0.254,0.439,0.254,1.158,0,1.597l-6.075,10.522c-0.254,0.439-0.876,0.798-1.383,0.798H38.242z"/>
	<path class="st2" d="M11.383,33.542c-0.507,0-1.129-0.359-1.383-0.798L1.789,18.522c-0.254-0.439-0.254-1.158,0-1.597L10,2.704
		c0.254-0.439,0.876-0.798,1.383-0.798h16.422c0.507,0,1.129,0.359,1.383,0.798l8.211,14.221c0.254,0.439,0.254,1.158,0,1.597
		l-8.211,14.221c-0.254,0.439-0.876,0.798-1.383,0.798H11.383z"/>
</g>
</svg>
