<?xml version="1.0" encoding="utf-8"?>
<!-- Generator: Adobe Illustrator 21.0.0, SVG Export Plug-In . SVG Version: 6.00 Build 0)  -->
<svg version="1.1" id="Layer_1" xmlns="http://www.w3.org/2000/svg" xmlns:xlink="http://www.w3.org/1999/xlink" x="0px" y="0px"
	 viewBox="0 0 110 32" style="enable-background:new 0 0 110 32;" xml:space="preserve">
<style type="text/css">
	.st0{fill:none;}
	.st1{fill:#FFFFFF;}
	.st2{fill:#EFC319;}
	.st3{fill:#4EB96F;}
	.st4{fill:#3B97D2;}
</style>
<g>
	<path class="st0" d="M46.149,20.225l-1.935,3.352c2.449-0.116,4.093-0.734,4.462-1.868c0.467-1.437-1.207-3.408-4.241-5.375
		l1.715,2.97C46.295,19.557,46.295,19.971,46.149,20.225z"/>
	<path class="st1" d="M21.496,23.228l-1.133,1.962c-0.146,0.253-0.146,0.668,0,0.921l2.557,4.428C23.066,30.793,23.425,31,23.718,31
		h5.113c0.293,0,0.651-0.207,0.798-0.461l2.557-4.428c0.146-0.253,0.146-0.668,0-0.921l-0.04-0.069
		c-2.655-0.281-5.488-0.735-8.41-1.372C22.978,23.584,22.231,23.41,21.496,23.228z"/>
	<path class="st1" d="M33.435,25.246l0.605,1.048c0.146,0.253,0.505,0.461,0.798,0.461h7.009c0.292,0,0.651-0.207,0.798-0.461
		l0.669-1.158C40.634,25.531,37.247,25.576,33.435,25.246z M46.149,19.304l-1.715-2.97l-0.866-1.499l-0.924-1.601
		c-0.146-0.253-0.505-0.461-0.798-0.461h-7.009c-0.292,0-0.651,0.207-0.798,0.461l-3.504,6.07c-0.146,0.253-0.146,0.668,0,0.921
		l0.668,1.158c5.041,1.61,9.742,2.349,13.009,2.194l1.935-3.352C46.295,19.971,46.295,19.557,46.149,19.304z"/>
	<path class="st1" d="M34.351,9.664l-4.736-8.203C29.469,1.207,29.11,1,28.818,1h-9.472c-0.293,0-0.651,0.207-0.798,0.461
		l-2.641,4.574l-2.095,3.629c-0.07,0.121-0.104,0.279-0.107,0.439c0,0.016,0,0.032,0,0.048c0.02,0.557,0.374,1.23,0.993,1.97
		c1.886,2.253,6.201,5.114,10.83,7.128h0.003h3.286c0.292,0,0.651-0.207,0.798-0.461l4.194-7.265l0.542-0.938
		c0.038-0.066,0.065-0.144,0.083-0.226C34.486,10.126,34.459,9.851,34.351,9.664z"/>
	<path class="st1" d="M47.266,17.6c-0.968-0.903-2.22-1.836-3.698-2.765l0.866,1.499c3.034,1.967,4.708,3.938,4.241,5.375
		c-0.369,1.134-2.013,1.751-4.462,1.868c-3.266,0.155-7.968-0.585-13.009-2.194c-0.097-0.031-0.193-0.06-0.29-0.092
		c-0.409-0.133-0.815-0.272-1.22-0.413c-0.532-0.186-1.059-0.378-1.581-0.577c-0.881-0.336-1.745-0.688-2.584-1.052h-0.003
		c-4.629-2.014-8.944-4.875-10.83-7.128c-0.62-0.74-0.973-1.413-0.993-1.97c0-0.016-0.001-0.032,0-0.048
		c0.003-0.159,0.037-0.318,0.107-0.439l2.095-3.629c-2.465-0.114-4.521,0.067-5.98,0.549C9.054,6.872,8.395,7.268,7.989,7.772
		C7.822,7.978,7.694,8.201,7.615,8.443c-0.832,2.558,3.58,6.423,10.608,9.783c0.725,0.347,1.477,0.689,2.255,1.023
		c0.92,0.395,1.874,0.78,2.859,1.151c1.027,0.387,2.086,0.758,3.172,1.112c1.449,0.471,2.878,0.887,4.272,1.247
		c0.478,0.124,0.95,0.238,1.419,0.349c3.603,0.848,6.923,1.312,9.673,1.38c-2.637,0.102-5.797-0.114-9.252-0.651
		c-0.444-0.069-0.893-0.143-1.347-0.223c-1.979-0.348-4.041-0.796-6.15-1.35c-0.898-0.236-1.778-0.486-2.641-0.745
		C11.282,18.154,3.26,12.974,4.177,9.485c0.108-0.41,0.341-0.777,0.676-1.106c-2.137,0.62-3.487,1.574-3.763,2.842
		c-0.823,3.777,8.154,8.982,20.406,12.007c0.735,0.182,1.482,0.356,2.24,0.521c2.922,0.637,5.755,1.091,8.41,1.372
		c0.435,0.046,0.865,0.088,1.29,0.125c3.811,0.33,7.199,0.285,9.878-0.11c2.663-0.392,4.625-1.129,5.594-2.193
		c0.019-0.021,0.041-0.042,0.059-0.063c0.025-0.027,0.047-0.055,0.071-0.082c0.198-0.226,0.35-0.473,0.438-0.745
		c0.028-0.087,0.046-0.177,0.063-0.267c0.001-0.004,0.002-0.008,0.003-0.012c0.005-0.021,0.004-0.043,0.008-0.065
		c0.004-0.023,0.006-0.047,0.009-0.07C49.685,20.471,48.849,19.076,47.266,17.6z"/>
	<path class="st2" d="M21.496,23.228l-1.133,1.962c-0.146,0.253-0.146,0.668,0,0.921l2.557,4.428C23.066,30.793,23.425,31,23.718,31
		h5.113c0.293,0,0.651-0.207,0.798-0.461l2.557-4.428c0.146-0.253,0.146-0.668,0-0.921l-0.04-0.069
		c-2.655-0.281-5.488-0.735-8.41-1.372C22.978,23.584,22.231,23.41,21.496,23.228z"/>
	<g>
		<path class="st3" d="M33.435,25.246l0.605,1.048c0.146,0.253,0.505,0.461,0.798,0.461h7.009c0.292,0,0.651-0.207,0.798-0.461
			l0.669-1.158C40.634,25.531,37.247,25.576,33.435,25.246z"/>
		<path class="st3" d="M46.149,19.304l-1.715-2.97l-0.866-1.499l-0.924-1.601c-0.146-0.253-0.505-0.461-0.798-0.461h-7.009
			c-0.293,0-0.651,0.207-0.798,0.461l-3.504,6.07c-0.146,0.253-0.146,0.668,0,0.921l0.668,1.158
			c5.041,1.61,9.742,2.349,13.009,2.194l1.935-3.352C46.295,19.971,46.295,19.557,46.149,19.304z"/>
	</g>
	<path class="st4" d="M34.351,9.664l-4.736-8.203C29.469,1.207,29.11,1,28.818,1h-9.472c-0.293,0-0.651,0.207-0.798,0.461
		l-2.641,4.574l-2.095,3.629c-0.07,0.121-0.104,0.279-0.107,0.439c0,0.016,0,0.032,0,0.048c0.02,0.557,0.374,1.23,0.993,1.97
		c1.886,2.253,6.201,5.114,10.83,7.128h0.003h3.286c0.292,0,0.651-0.207,0.798-0.461l4.194-7.265l0.542-0.938
		c0.038-0.066,0.065-0.144,0.083-0.226C34.486,10.126,34.459,9.851,34.351,9.664z"/>
	<path class="st1" d="M58.032,16.2c-2.423,0-4.202,2.034-4.202,4.576c0,2.728,1.965,4.575,4.372,4.575
		c1.66,0,2.728-0.661,3.609-1.644l-0.813-0.729c-0.712,0.746-1.559,1.237-2.762,1.237c-1.542,0-2.898-1.068-3.084-2.966h6.947
		c0.017-0.152,0.017-0.288,0.017-0.407C62.116,18.268,60.625,16.2,58.032,16.2z M55.151,20.284c0.17-1.711,1.322-2.982,2.847-2.982
		c1.745,0,2.661,1.389,2.796,2.982H55.151z M70.201,21.402c0,1.644-1.136,2.745-2.627,2.745c-1.542,0-2.423-1.017-2.423-2.643
		v-5.117h-1.305v5.439c0,2.084,1.237,3.508,3.355,3.508c1.508,0,2.407-0.762,2.999-1.711v1.525h1.287v-8.761h-1.287V21.402z
		 M75.134,18.674v-2.287h-1.305v8.761h1.305v-3.491c0-2.644,1.559-4.016,3.474-4.016h0.102v-1.406
		C77.049,16.166,75.778,17.217,75.134,18.674z M84.269,16.2c-2.643,0-4.575,2.101-4.575,4.592s1.914,4.558,4.541,4.558
		c2.643,0,4.592-2.101,4.592-4.592S86.895,16.2,84.269,16.2z M84.269,24.182c-1.847,0-3.236-1.525-3.236-3.423
		c0-1.898,1.305-3.406,3.202-3.406c1.847,0,3.254,1.525,3.254,3.44C87.488,22.673,86.166,24.182,84.269,24.182z M95.59,16.2
		c-1.61,0-2.643,0.898-3.355,1.949v-1.762h-1.305v11.472h1.305V23.47c0.678,0.983,1.729,1.864,3.355,1.864
		c2.119,0,4.185-1.694,4.185-4.575C99.776,17.861,97.692,16.2,95.59,16.2z M95.353,24.165c-1.627,0-3.169-1.356-3.169-3.406
		c0-2.034,1.541-3.389,3.169-3.389c1.66,0,3.084,1.322,3.084,3.406C98.437,22.911,97.048,24.165,95.353,24.165z M105.235,16.268
		c-1.271,0-2.22,0.288-3.186,0.729l0.389,1.068c0.814-0.373,1.627-0.644,2.661-0.644c1.644,0,2.61,0.814,2.61,2.389v0.305
		c-0.78-0.22-1.576-0.373-2.694-0.373c-2.22,0-3.745,0.983-3.745,2.847c0,1.83,1.644,2.745,3.27,2.745
		c1.542,0,2.559-0.712,3.169-1.508v1.322h1.254v-5.355C108.963,17.488,107.624,16.268,105.235,16.268z M107.726,21.928
		c0,1.39-1.322,2.372-2.932,2.372c-1.186,0-2.203-0.644-2.203-1.762c0-1.119,0.915-1.83,2.559-1.83c1.067,0,1.932,0.186,2.576,0.373
		V21.928z"/>
</g>
</svg>
