<?xml version="1.0" encoding="utf-8"?>
<!-- Generator: Adobe Illustrator 21.0.0, SVG Export Plug-In . SVG Version: 6.00 Build 0)  -->
<svg version="1.1" id="Layer_1" xmlns="http://www.w3.org/2000/svg" xmlns:xlink="http://www.w3.org/1999/xlink" x="0px" y="0px"
	 viewBox="0 0 85.333 28" style="enable-background:new 0 0 85.333 28;" xml:space="preserve">
<style type="text/css">
	.st0{fill:#00A79D;}
	.st1{fill:#EFC319;}
</style>
<g>
	<path class="st0" d="M42.377,4.966c-0.485-1.622-3.574-2.338-8.451-2.244c0.123,0.343,0.18,0.713,0.155,1.098
		c3.632-0.062,5.913,0.351,6.174,1.226c0.486,1.625-4.875,4.786-13.398,8.254l-5.274-9.134c-0.187-0.324-0.646-0.589-1.02-0.589
		H8.455c-0.374,0-0.833,0.265-1.02,0.589L1.381,14.653c-0.187,0.324-0.187,0.854,0,1.177l6.054,10.486
		c0.187,0.324,0.646,0.589,1.02,0.589h12.108c0.374,0,0.833-0.265,1.02-0.589l5.764-9.984C37.185,11.824,43.148,7.547,42.377,4.966z
		"/>
	<path class="st1" d="M43.939,23.157c0,1.642-0.853,2.482-2.24,2.482c-1.4,0-2.253-0.891-2.253-2.546v-5.066H37.88v5.13
		c0,2.584,1.477,3.92,3.793,3.92c2.329,0,3.832-1.336,3.832-3.996v-5.054h-1.566V23.157z M55.006,20.853
		c0-1.744-1.26-2.826-3.309-2.826h-3.972v8.91h1.566v-3.106h1.96l2.19,3.106h1.845l-2.406-3.373
		C54.128,23.221,55.006,22.329,55.006,20.853z M49.291,22.444v-2.991h2.278c1.159,0,1.846,0.509,1.846,1.489
		c0,0.917-0.713,1.502-1.832,1.502H49.291z M30.99,23.144h4.468v-1.4H30.99v-2.317h5.04v-1.4h-6.606v8.91h6.67v-1.4H30.99V23.144z
		 M61.273,17.874c-2.737,0-4.671,2.1-4.671,4.621c0,2.52,1.909,4.595,4.645,4.595c2.737,0,4.671-2.1,4.671-4.62
		C65.918,19.949,64.009,17.874,61.273,17.874z M61.273,25.651c-1.769,0-3.029-1.438-3.029-3.182c0-1.744,1.234-3.157,3.004-3.157
		c1.769,0,3.029,1.439,3.029,3.182S63.042,25.651,61.273,25.651z M80.172,17.963h-1.451L74.8,26.937h1.604l0.916-2.151h4.213
		l0.904,2.151h1.655L80.172,17.963z M77.894,23.399l1.528-3.564l1.54,3.564H77.894z M71.398,18.027h-3.513v8.91h1.566v-2.864h1.769
		c1.96,0,3.564-1.044,3.564-3.055C74.784,19.198,73.473,18.027,71.398,18.027z M71.27,22.66h-1.82v-3.208h1.82
		c1.171,0,1.923,0.547,1.923,1.604C73.193,22.011,72.454,22.66,71.27,22.66z M34.081,3.888c0.002-0.023-0.002-0.045-0.001-0.068
		c0.025-0.385-0.032-0.755-0.155-1.098C33.577,1.753,32.7,1.02,31.606,0.921c-1.503-0.136-2.831,0.972-2.967,2.475
		c-0.136,1.503,0.972,2.831,2.475,2.967C32.617,6.499,33.945,5.391,34.081,3.888z"/>
</g>
</svg>
