<?xml version="1.0" encoding="utf-8"?>
<!-- Generator: Adobe Illustrator 21.0.0, SVG Export Plug-In . SVG Version: 6.00 Build 0)  -->
<svg version="1.1" id="Layer_1" xmlns="http://www.w3.org/2000/svg" xmlns:xlink="http://www.w3.org/1999/xlink" x="0px" y="0px"
	 viewBox="0 0 105 32" style="enable-background:new 0 0 105 32;" xml:space="preserve">
<style type="text/css">
	.st0{fill:#FFFFFF;}
	.st1{fill:#EFC319;}
	.st2{fill:#3B97D2;}
	.st3{fill:none;}
	.st4{fill:#4EB96F;}
</style>
<g>
	<path class="st0" d="M28.2,9.6l-4.8-8.3c-0.1-0.3-0.5-0.5-0.8-0.5H13c-0.3,0-0.7,0.2-0.8,0.5L9.5,5.9L7.3,9.6
		C7.3,9.7,7.2,9.8,7.2,10c0,0,0,0,0,0c0,0.6,0.4,1.3,1,2c1.9,2.3,6.3,5.2,11,7.2h0h3.3c0.3,0,0.7-0.2,0.8-0.5l4.3-7.4l0.6-1
		c0-0.1,0.1-0.1,0.1-0.2C28.4,10,28.3,9.8,28.2,9.6z"/>
	<path class="st1" d="M26,25.3L25.8,25l-2.2-3.8C23.5,21,22.2,21,21.9,21l-4.5-0.6c-0.3,0-0.7,0.2-0.8,0.5l-2.5,4.3L14,25.3
		c-0.1,0.1-0.1,0.3-0.1,0.5c0,0.2,0,0.3,0.1,0.5l0.2,0.3l2.4,4.2c0.1,0.3,0.5,0.5,0.8,0.5h5.2c0.3,0,0.7-0.2,0.8-0.5l2.5-4.3
		l0.1-0.2c0.1-0.1,0.1-0.3,0.1-0.5C26.1,25.6,26.1,25.5,26,25.3z"/>
	<path class="st2" d="M28.2,9.6l-4.8-8.3c-0.1-0.3-0.5-0.5-0.8-0.5H13c-0.3,0-0.7,0.2-0.8,0.5L9.5,5.9L7.3,9.6
		C7.3,9.7,7.2,9.8,7.2,10c0,0,0,0,0,0c0,0.6,0.4,1.3,1,2c1.9,2.3,6.3,5.2,11,7.2h0h3.3c0.3,0,0.7-0.2,0.8-0.5l4.3-7.4l0.6-1
		c0-0.1,0.1-0.1,0.1-0.2C28.4,10,28.3,9.8,28.2,9.6z"/>
	<path class="st0" d="M52.3,16.2c-2.5,0-4.3,2.1-4.3,4.7c0,2.8,2,4.6,4.4,4.6c1.7,0,2.8-0.7,3.7-1.7l-0.8-0.7
		c-0.7,0.8-1.6,1.3-2.8,1.3c-1.6,0-2.9-1.1-3.1-3h7.1c0-0.2,0-0.3,0-0.4C56.4,18.3,54.9,16.2,52.3,16.2z M49.4,20.4
		c0.2-1.7,1.3-3,2.9-3c1.8,0,2.7,1.4,2.8,3H49.4z M64.7,21.5c0,1.7-1.2,2.8-2.7,2.8c-1.6,0-2.5-1-2.5-2.7v-5.2h-1.3v5.5
		c0,2.1,1.3,3.6,3.4,3.6c1.5,0,2.4-0.8,3-1.7v1.5H66v-8.9h-1.3V21.5z M69.7,18.7v-2.3h-1.3v8.9h1.3v-3.5c0-2.7,1.6-4.1,3.5-4.1h0.1
		v-1.4C71.6,16.2,70.3,17.2,69.7,18.7z M79,16.2c-2.7,0-4.6,2.1-4.6,4.7s1.9,4.6,4.6,4.6c2.7,0,4.7-2.1,4.7-4.7S81.6,16.2,79,16.2z
		 M79,24.3c-1.9,0-3.3-1.6-3.3-3.5c0-1.9,1.3-3.5,3.3-3.5c1.9,0,3.3,1.5,3.3,3.5C82.2,22.8,80.9,24.3,79,24.3z M90.5,16.2
		c-1.6,0-2.7,0.9-3.4,2v-1.8h-1.3v11.7h1.3v-4.5c0.7,1,1.8,1.9,3.4,1.9c2.2,0,4.3-1.7,4.3-4.6C94.7,17.9,92.6,16.2,90.5,16.2z
		 M90.2,24.3c-1.7,0-3.2-1.4-3.2-3.5c0-2.1,1.6-3.4,3.2-3.4c1.7,0,3.1,1.3,3.1,3.5C93.4,23,91.9,24.3,90.2,24.3z M100.3,16.3
		C99,16.3,98,16.6,97,17l0.4,1.1c0.8-0.4,1.7-0.7,2.7-0.7c1.7,0,2.7,0.8,2.7,2.4v0.3c-0.8-0.2-1.6-0.4-2.7-0.4c-2.3,0-3.8,1-3.8,2.9
		c0,1.9,1.7,2.8,3.3,2.8c1.6,0,2.6-0.7,3.2-1.5v1.3h1.3v-5.4C104.1,17.5,102.7,16.3,100.3,16.3z M102.8,22c0,1.4-1.3,2.4-3,2.4
		c-1.2,0-2.2-0.7-2.2-1.8c0-1.1,0.9-1.9,2.6-1.9c1.1,0,2,0.2,2.6,0.4V22z"/>
	<path class="st3" d="M35.5,23.6c-1.5-0.1-3.2-0.3-4.9-0.7C32.3,23.3,34,23.5,35.5,23.6z"/>
	<path class="st4" d="M35.5,23.6c0.5,0,1,0.1,1.4,0.1c0.5,0,0.9,0,1.3,0l2-3.4c0.1-0.3,0.1-0.7,0-0.9l-1.7-3l0,0l-0.9-1.5l-0.9-1.6
		c-0.1-0.3-0.5-0.5-0.8-0.5h-7.1c-0.1,0-0.2,0-0.2,0c-0.2,0.1-0.5,0.2-0.6,0.4l-3.6,6.2c-0.1,0.3-0.1,0.7,0,0.9l0.7,1.2
		c1.9,0.6,3.8,1.1,5.6,1.5C32.3,23.3,34,23.5,35.5,23.6z"/>
	<path class="st4" d="M25.8,22.7l2.1,3.7c0.1,0.2,0.3,0.4,0.6,0.4c0.1,0,0.2,0,0.2,0h7.1c0.3,0,0.7-0.2,0.8-0.5l1.4-2.4
		C34.7,24.4,28.3,23.2,25.8,22.7z"/>
	<path class="st0" d="M43.9,21.3c-0.1-1.1-1.2-2.3-2.6-3.7c-1-0.9-2.1-1.6-3.6-2.6l0.7,1.3l0,0c3.1,2,4.9,4,4.5,5.5
		c-0.4,1.2-2.2,1.8-4.7,1.9c-0.4,0-0.9,0-1.3,0c-0.5,0-0.9,0-1.4-0.1c-1.5-0.1-3.2-0.3-4.9-0.7c-1.8-0.4-3.6-0.9-5.6-1.5
		c-0.1,0-0.2-0.1-0.3-0.1c-0.4-0.1-0.8-0.3-1.2-0.4c-0.5-0.2-1.1-0.4-1.6-0.6c-0.9-0.3-1.8-0.7-2.6-1.1h0c-4.7-2-9.1-5-11-7.2
		c-0.6-0.8-1-1.4-1-2c0,0,0,0,0,0c0-0.2,0-0.3,0.1-0.4l2.1-3.7C7,5.8,4.9,5.9,3.4,6.4c-0.9,0.3-1.6,0.7-2,1.2
		C1.3,7.8,1.1,8.1,1.1,8.3c-0.8,2.6,3.6,6.5,10.8,9.9c0.7,0.4,1.5,0.7,2.3,1c0.9,0.4,1.9,0.8,2.9,1.2c1,0.4,2.1,0.8,3.2,1.1
		c1.5,0.5,2.9,0.9,4.3,1.3c0.5,0.1,1,0.3,1.4,0.4C36,25.2,43.9,25,43.9,21.3z"/>
</g>
</svg>
