<?xml version="1.0" encoding="utf-8"?>
<!-- Generator: Adobe Illustrator 21.0.0, SVG Export Plug-In . SVG Version: 6.00 Build 0)  -->
<svg version="1.1" id="Layer_1" xmlns="http://www.w3.org/2000/svg" xmlns:xlink="http://www.w3.org/1999/xlink" x="0px" y="0px"
	 viewBox="0 0 33 33" style="enable-background:new 0 0 33 33;" xml:space="preserve">
<style type="text/css">
	.st0{fill:#F58435;}
	.st1{fill:#FFFFFF;}
	.st2{fill:#424242;}
	.st3{fill:#616161;}
	.st4{fill:#757575;}
</style>
<g>
	<circle class="st0" cx="16.5" cy="16.5" r="14"/>
	<g>
		<g>
			<path class="st1" d="M14.401,16.137c0-0.471,0.157-0.904,0.419-1.255l-4.591,1.601l-2.561,3.972l0.738,0.617l2.951-2.901
				l4.112-0.207C14.832,17.605,14.401,16.922,14.401,16.137z"/>
			<path class="st1" d="M17.473,14.278l0.642-5.48c-0.454,0.33-1.011,0.526-1.615,0.526c-0.604,0-1.161-0.197-1.615-0.526
				l0.642,5.48c0.291-0.153,0.622-0.24,0.973-0.24C16.852,14.038,17.182,14.125,17.473,14.278z"/>
			<path class="st1" d="M22.771,16.483l-4.591-1.601c0.262,0.35,0.419,0.784,0.419,1.255c0,0.785-0.431,1.468-1.069,1.828
				l4.112,0.207l2.951,2.901l0.738-0.617L22.771,16.483z"/>
			<path class="st1" d="M16.5,9.037c1.363,0,2.468-1.105,2.468-2.468S17.863,4.102,16.5,4.102s-2.468,1.105-2.468,2.468
				S15.137,9.037,16.5,9.037z M16.5,5.698c0.481,0,0.871,0.39,0.871,0.871s-0.39,0.871-0.871,0.871c-0.481,0-0.871-0.39-0.871-0.871
				S16.019,5.698,16.5,5.698z"/>
			<path class="st1" d="M16.5,14.362c-0.98,0-1.775,0.795-1.775,1.775c0,0.98,0.795,1.775,1.775,1.775
				c0.98,0,1.775-0.795,1.775-1.775C18.275,15.157,17.48,14.362,16.5,14.362z M16.5,16.764c-0.346,0-0.627-0.281-0.627-0.627
				c0-0.346,0.281-0.627,0.627-0.627c0.346,0,0.627,0.281,0.627,0.627C17.127,16.483,16.846,16.764,16.5,16.764z"/>
		</g>
		<path class="st1" d="M10.417,20.461v6.667h12.165v-6.667H10.417z M11.824,26.522h-0.52v-5.455h0.52V26.522z M13.47,26.522h-0.52
			v-5.455h0.52V26.522z M15.115,26.522h-0.52v-5.455h0.52V26.522z M16.76,26.522h-0.52v-5.455h0.52V26.522z M18.405,26.522h-0.52
			v-5.455h0.52V26.522z M20.05,26.522h-0.52v-5.455h0.52V26.522z M21.695,26.522h-0.52v-5.455h0.52V26.522z"/>
	</g>
</g>
</svg>
