<?xml version="1.0" encoding="utf-8"?>
<!-- Generator: Adobe Illustrator 21.0.1, SVG Export Plug-In . SVG Version: 6.00 Build 0)  -->
<svg version="1.1" id="Layer_1" xmlns="http://www.w3.org/2000/svg" xmlns:xlink="http://www.w3.org/1999/xlink" x="0px" y="0px"
	 viewBox="0 0 166.333 37" style="enable-background:new 0 0 166.333 37;" xml:space="preserve">
<style type="text/css">
	.st0{fill:#202E46;}
	.st1{fill:#9BBDAA;}
	.st2{fill:#EC0044;}
	.st3{fill:#00A79D;}
	.st4{fill:#EA3F67;}
</style>
<g>
	<g>
		<path class="st3" d="M15.216,29.249l-6.665-9.153l-2.488,2.581v6.572H1.334v-21.5h4.729v9.398l8.723-9.398h5.712l-8.753,9.122
			l9.153,12.378H15.216z"/>
		<path class="st3" d="M28.286,29.557c-4.762,0-8.293-2.457-8.293-6.236c0-2.641,1.198-4.176,3.469-5.221
			c-1.658-1.014-2.733-2.396-2.733-4.73c0-3.317,3.011-5.927,7.558-5.927c4.544,0,7.555,2.61,7.555,5.927
			c0,2.335-1.075,3.716-2.733,4.73c2.181,1.137,3.471,2.518,3.471,5.098C36.579,27.222,33.045,29.557,28.286,29.557z M28.286,20.281
			c-2.151,0-3.716,0.983-3.716,2.672c0,1.536,1.38,2.702,3.716,2.702c2.333,0,3.716-1.167,3.716-2.702
			C32.002,21.264,30.434,20.281,28.286,20.281z M28.286,11.343c-1.936,0-3.074,1.167-3.074,2.518c0,1.536,1.198,2.672,3.074,2.672
			c1.873,0,3.071-1.105,3.071-2.641C31.357,12.541,30.219,11.343,28.286,11.343z"/>
		<path class="st3" d="M44.332,29.557c-2.303,0-4.884-0.768-7.065-2.488l1.998-3.071c1.781,1.289,3.654,1.966,5.189,1.966
			c1.353,0,1.966-0.491,1.966-1.229v-0.061c0-1.013-1.598-1.352-3.409-1.904c-2.303-0.675-4.914-1.751-4.914-4.944v-0.061
			c0-3.349,2.703-5.222,6.02-5.222c2.088,0,4.362,0.706,6.142,1.904l-1.781,3.225c-1.628-0.953-3.256-1.536-4.454-1.536
			c-1.135,0-1.721,0.491-1.721,1.137v0.061c0,0.922,1.568,1.35,3.349,1.966c2.303,0.768,4.977,1.873,4.977,4.883v0.061
			C50.629,27.898,47.896,29.557,44.332,29.557z"/>
	</g>
	<g>
		<path class="st0" d="M64.446,29.164v-2.429c-0.98,1.448-2.405,2.685-4.624,2.685c-2.896,0-5.768-2.288-5.768-6.282
			c0-3.97,2.873-6.305,5.768-6.305c2.242,0,3.69,1.215,4.624,2.569v-7.286h1.798v17.047H64.446z M60.15,18.445
			c-2.335,0-4.25,1.728-4.25,4.67c0,2.872,1.962,4.694,4.25,4.694c2.241,0,4.367-1.868,4.367-4.694
			C64.516,20.313,62.391,18.445,60.15,18.445z"/>
		<path class="st0" d="M69.791,19.402l-0.538-1.471c1.331-0.607,2.639-1.004,4.391-1.004c3.293,0,5.137,1.681,5.137,4.858v7.379
			h-1.728v-1.822c-0.84,1.098-2.241,2.078-4.367,2.078c-2.242,0-4.507-1.261-4.507-3.783c0-2.569,2.102-3.924,5.161-3.924
			c1.542,0,2.639,0.21,3.713,0.514v-0.42c0-2.172-1.331-3.293-3.596-3.293C72.032,18.515,70.911,18.889,69.791,19.402z
			 M70.001,25.567c0,1.541,1.401,2.429,3.035,2.429c2.219,0,4.04-1.355,4.04-3.269v-1.167c-0.888-0.257-2.079-0.514-3.55-0.514
			C71.262,23.046,70.001,24.026,70.001,25.567z"/>
		<path class="st0" d="M85.434,29.397c-1.728,0-3.643-0.677-4.998-1.775l0.911-1.284c1.307,0.981,2.756,1.541,4.18,1.541
			c1.447,0,2.499-0.747,2.499-1.915v-0.046c0-1.215-1.425-1.682-3.013-2.125c-1.892-0.537-3.993-1.191-3.993-3.41v-0.047
			c0-2.078,1.728-3.456,4.11-3.456c1.471,0,3.105,0.514,4.343,1.331l-0.817,1.355c-1.121-0.724-2.406-1.167-3.573-1.167
			c-1.425,0-2.335,0.747-2.335,1.751v0.047c0,1.144,1.495,1.588,3.105,2.078c1.869,0.561,3.877,1.285,3.877,3.456v0.047
			C89.73,28.066,87.839,29.397,85.434,29.397z"/>
		<path class="st0" d="M93.697,29.164h-1.799V12.116h1.799v7.076c0.794-1.308,2.054-2.359,4.133-2.359
			c2.919,0,4.624,1.962,4.624,4.834v7.496h-1.798v-7.053c0-2.242-1.214-3.643-3.339-3.643c-2.079,0-3.62,1.518-3.62,3.783V29.164z"
			/>
		<path class="st0" d="M111.535,29.421c-2.242,0-3.69-1.214-4.624-2.568v2.312h-1.799V12.116h1.799v7.403
			c0.98-1.448,2.405-2.686,4.624-2.686c2.896,0,5.768,2.289,5.768,6.282C117.303,27.086,114.454,29.421,111.535,29.421z
			 M111.208,18.445c-2.242,0-4.367,1.868-4.367,4.67c0,2.826,2.124,4.694,4.367,4.694c2.335,0,4.25-1.728,4.25-4.67
			C115.458,20.267,113.497,18.445,111.208,18.445z"/>
		<path class="st0" d="M124.959,29.444c-3.62,0-6.258-2.849-6.258-6.282c0-3.433,2.662-6.329,6.305-6.329
			c3.62,0,6.282,2.849,6.282,6.282S128.602,29.444,124.959,29.444z M124.959,18.422c-2.615,0-4.413,2.078-4.413,4.694
			c0,2.615,1.914,4.717,4.46,4.717c2.616,0,4.436-2.078,4.436-4.67C129.442,20.524,127.504,18.422,124.959,18.422z"/>
		<path class="st0" d="M134.064,19.402l-0.538-1.471c1.331-0.607,2.639-1.004,4.391-1.004c3.293,0,5.137,1.681,5.137,4.858v7.379
			h-1.728v-1.822c-0.84,1.098-2.241,2.078-4.367,2.078c-2.242,0-4.507-1.261-4.507-3.783c0-2.569,2.102-3.924,5.161-3.924
			c1.542,0,2.639,0.21,3.713,0.514v-0.42c0-2.172-1.331-3.293-3.596-3.293C136.305,18.515,135.184,18.889,134.064,19.402z
			 M134.274,25.567c0,1.541,1.401,2.429,3.036,2.429c2.219,0,4.04-1.355,4.04-3.269v-1.167c-0.888-0.257-2.079-0.514-3.55-0.514
			C135.535,23.046,134.274,24.026,134.274,25.567z"/>
		<path class="st0" d="M147.512,29.164h-1.799V17.091h1.799v3.153c0.887-2.008,2.638-3.456,4.927-3.363v1.938h-0.14
			c-2.639,0-4.787,1.892-4.787,5.534V29.164z"/>
		<path class="st0" d="M163.202,29.164v-2.429c-0.98,1.448-2.405,2.685-4.624,2.685c-2.896,0-5.768-2.288-5.768-6.282
			c0-3.97,2.873-6.305,5.768-6.305c2.242,0,3.69,1.215,4.624,2.569v-7.286H165v17.047H163.202z M158.905,18.445
			c-2.335,0-4.25,1.728-4.25,4.67c0,2.872,1.962,4.694,4.25,4.694c2.241,0,4.367-1.868,4.367-4.694
			C163.272,20.313,161.147,18.445,158.905,18.445z"/>
	</g>
</g>
</svg>
