<?xml version="1.0" encoding="utf-8"?>
<!-- Generator: Adobe Illustrator 21.0.2, SVG Export Plug-In . SVG Version: 6.00 Build 0)  -->
<svg version="1.1" id="Layer_1" xmlns="http://www.w3.org/2000/svg" xmlns:xlink="http://www.w3.org/1999/xlink" x="0px" y="0px"
	 viewBox="0 0 166.3 37" style="enable-background:new 0 0 166.3 37;" xml:space="preserve">
<style type="text/css">
	.st0{fill:#202E46;}
	.st1{fill:#00A79D;}
</style>
<g>
	<g>
		<path class="st0" d="M63.8,28.5v-2.3c-0.9,1.4-2.3,2.5-4.4,2.5c-2.7,0-5.4-2.2-5.4-5.9s2.7-5.9,5.4-5.9c2.1,0,3.5,1.1,4.4,2.4
			v-6.9h1.7v16.1C65.5,28.5,63.8,28.5,63.8,28.5z M59.8,18.4c-2.2,0-4,1.6-4,4.4c0,2.7,1.8,4.4,4,4.4c2.1,0,4.1-1.8,4.1-4.4
			C63.9,20.1,61.9,18.4,59.8,18.4z"/>
		<path class="st0" d="M68.9,19.3l-0.5-1.4c1.3-0.6,2.5-0.9,4.1-0.9c3.1,0,4.8,1.6,4.8,4.6v7h-1.6v-1.7c-0.8,1-2.1,2-4.1,2
			c-2.1,0-4.3-1.2-4.3-3.6s2-3.7,4.9-3.7c1.5,0,2.5,0.2,3.5,0.5v-0.4c0-2-1.3-3.1-3.4-3.1C71,18.4,69.9,18.8,68.9,19.3z M69.1,25.1
			c0,1.5,1.3,2.3,2.9,2.3c2.1,0,3.8-1.3,3.8-3.1v-1.1c-0.8-0.2-2-0.5-3.3-0.5C70.3,22.7,69.1,23.6,69.1,25.1z"/>
		<path class="st0" d="M83.6,28.7c-1.6,0-3.4-0.6-4.7-1.7l0.9-1.2c1.2,0.9,2.6,1.5,3.9,1.5c1.4,0,2.4-0.7,2.4-1.8l0,0
			c0-1.1-1.3-1.6-2.8-2c-1.8-0.5-3.8-1.1-3.8-3.2l0,0c0-2,1.6-3.3,3.9-3.3c1.4,0,2.9,0.5,4.1,1.3l-0.8,1.3c-1.1-0.7-2.3-1.1-3.4-1.1
			c-1.3,0-2.2,0.7-2.2,1.7l0,0c0,1.1,1.4,1.5,2.9,2c1.8,0.5,3.7,1.2,3.7,3.3l0,0C87.7,27.5,85.9,28.7,83.6,28.7z"/>
		<path class="st0" d="M91.4,28.5h-1.7V12.4h1.7v6.7c0.7-1.2,1.9-2.2,3.9-2.2c2.8,0,4.4,1.9,4.4,4.6v7.1H98v-6.7
			c0-2.1-1.1-3.4-3.1-3.4s-3.4,1.4-3.4,3.6v6.4H91.4z"/>
		<path class="st0" d="M108.2,28.7c-2.1,0-3.5-1.1-4.4-2.4v2.2h-1.7V12.4h1.7v7c0.9-1.4,2.3-2.5,4.4-2.5c2.7,0,5.4,2.2,5.4,5.9
			C113.7,26.5,111,28.7,108.2,28.7z M107.9,18.4c-2.1,0-4.1,1.8-4.1,4.4c0,2.7,2,4.4,4.1,4.4c2.2,0,4-1.6,4-4.4
			C111.9,20.1,110.1,18.4,107.9,18.4z"/>
		<path class="st0" d="M120.9,28.8c-3.4,0-5.9-2.7-5.9-5.9s2.5-6,5.9-6s5.9,2.7,5.9,5.9S124.3,28.8,120.9,28.8z M120.9,18.4
			c-2.5,0-4.2,2-4.2,4.4c0,2.5,1.8,4.4,4.2,4.4c2.5,0,4.2-2,4.2-4.4C125.1,20.3,123.3,18.4,120.9,18.4z"/>
		<path class="st0" d="M129.5,19.3l-0.5-1.4c1.3-0.6,2.5-0.9,4.1-0.9c3.1,0,4.8,1.6,4.8,4.6v7h-1.6v-1.7c-0.8,1-2.1,2-4.1,2
			c-2.1,0-4.3-1.2-4.3-3.6s2-3.7,4.9-3.7c1.5,0,2.5,0.2,3.5,0.5v-0.4c0-2-1.3-3.1-3.4-3.1C131.6,18.4,130.5,18.8,129.5,19.3z
			 M129.7,25.1c0,1.5,1.3,2.3,2.9,2.3c2.1,0,3.8-1.3,3.8-3.1v-1.1c-0.8-0.2-2-0.5-3.3-0.5C130.9,22.7,129.7,23.6,129.7,25.1z"/>
		<path class="st0" d="M142.2,28.5h-1.7V17.1h1.7v3c0.8-1.9,2.5-3.3,4.6-3.2v1.8h-0.1c-2.5,0-4.5,1.8-4.5,5.2V28.5z"/>
		<path class="st0" d="M157,28.5v-2.3c-0.9,1.4-2.3,2.5-4.4,2.5c-2.7,0-5.4-2.2-5.4-5.9s2.7-5.9,5.4-5.9c2.1,0,3.5,1.1,4.4,2.4v-6.9
			h1.7v16.1C158.7,28.5,157,28.5,157,28.5z M152.9,18.4c-2.2,0-4,1.6-4,4.4c0,2.7,1.8,4.4,4,4.4c2.1,0,4.1-1.8,4.1-4.4
			C157,20.1,155,18.4,152.9,18.4z"/>
	</g>
	<path class="st1" d="M17.5,16.9l4.4-4.6c0.3-1.7,1.3-3.1,2.8-4h-4.4l-8.2,8.9V8.3H7.7v20.3h4.5v-6.2l2.3-2.4l6.3,8.6h5.4l-1.4-1.9
		L17.5,16.9z M44.7,16.5c-3.5-0.9-4.4-1.3-4.4-2.7v-0.1c0-1,0.9-1.8,2.6-1.8s3.5,0.8,5.3,2l2.3-3.4C48.4,9,45.9,8,43,8
		c-2.4,0-4.4,0.8-5.7,2.2c0.7,1,1,2.1,1,3.4c0,1.6-0.5,2.9-1.4,4c1.1,1.4,3.1,2.1,5.7,2.8c3.4,0.9,4.1,1.5,4.1,2.6v0.1
		c0,1.2-1.1,1.9-2.9,1.9c-1.8,0-3.3-0.6-4.8-1.5c-0.1,1.5-0.7,2.8-1.6,3.8c1.9,1.1,4.1,1.6,6.3,1.6c4.4,0,7.5-2.3,7.5-6.3v-0.1
		C51.1,19,48.8,17.6,44.7,16.5z M34.6,18.1c1.6-1,2.6-2.3,2.6-4.5c0-3.1-2.8-5.6-7.1-5.6c-1,0-1.9,0.1-2.7,0.4
		c-2.5,0.7-4.1,2.4-4.3,4.5c0,0.2-0.1,0.5-0.1,0.7c0,2.2,1,3.5,2.6,4.5c-1.7,0.8-2.7,1.8-3.1,3.5l5.3,7.1c0.7,0.2,1.6,0.2,2.4,0.2
		c4.5,0,7.8-2.2,7.8-6C37.8,20.5,36.6,19.2,34.6,18.1z M30,11.7c1.8,0,2.9,1.1,2.9,2.4c0,1.4-1.1,2.5-2.9,2.5s-2.9-1.1-2.9-2.5
		C27.1,12.8,28.2,11.7,30,11.7z M30,25.2c-2.2,0-3.5-1.1-3.5-2.5c0-1.6,1.5-2.5,3.5-2.5s3.5,0.9,3.5,2.5
		C33.5,24.1,32.2,25.2,30,25.2z"/>
</g>
</svg>
