<?xml version="1.0" encoding="utf-8"?>
<!-- Generator: Adobe Illustrator 21.0.1, SVG Export Plug-In . SVG Version: 6.00 Build 0)  -->
<svg version="1.1" id="Layer_1" xmlns="http://www.w3.org/2000/svg" xmlns:xlink="http://www.w3.org/1999/xlink" x="0px" y="0px"
	 viewBox="0 0 133.5 37" style="enable-background:new 0 0 133.5 37;" xml:space="preserve">
<style type="text/css">
	.st0{fill:#202E46;}
	.st1{fill:#9BBDAA;}
	.st2{fill:#EC0044;}
	.st3{fill:#00A79D;}
	.st4{fill:#EA3F67;}
</style>
<g>
	<g>
		<path class="st1" d="M27.415,2.155v22.922c0,1.376-0.806,4.062-6.206,6.589c-1.418,0.663-2.951,1.337-3.989,1.784
			c-1.228,0.53-1.726,0.745-1.96,0.819l0.004,0.011c-0.033,0.012-0.059,0.023-0.098,0.023c-0.011,0-0.022-0.001-0.035-0.002
			c-0.06,0.006-0.091-0.004-0.134-0.02l0.004-0.011c-0.235-0.074-0.732-0.289-1.96-0.819c-0.767-0.331-1.805-0.786-2.867-1.268
			v2.284c2.558,1.142,4.843,2.094,4.847,2.093c0.005,0.002,3.903-1.623,7.217-3.174c3.652-1.709,7.304-4.417,7.304-7.622V4.433
			C29.542,3.771,29.035,2.909,27.415,2.155z"/>
		<path class="st2" d="M15.038,0.441L15.038,0.441c-0.006,0-0.011,0-0.018,0c-0.006,0-0.011,0-0.017,0v0
			C3.035,0.456,0.5,2.948,0.5,4.433v21.33c0,2.415,2.075,4.548,4.66,6.184V7.411c0.015-0.118,0.084-0.343,0.368-0.493
			c1.827-0.611,10.14-3.041,15.347,1.417c1.553,1.33,2.324,3.584,2.324,5.912v0.065c0,2.637-1.026,5.168-2.69,6.511
			c-1.665,1.343-3.968,1.951-6.524,1.951h-2.758l-1.184-2.457l1.184-2.457h2.167c1.254,0,2.762-0.127,3.681-0.993
			c0.669-0.631,1.046-1.481,1.046-2.458v-0.065c0-1.123-0.313-1.832-0.944-2.493c-2.328-2.439-7.001-1.109-7.001-1.109v7.119
			L8.99,20.318l1.184,2.457v8.22c2.157,0.987,4.388,1.929,4.957,2.166c0.64-0.266,3.388-1.427,5.763-2.539
			c1.737-0.813,5.407-2.869,5.407-5.767V1.848C24.158,1.056,20.927,0.449,15.038,0.441z M2.478,20.311l1.614-3.046l0.002,6.033
			L2.478,20.311z"/>
	</g>
	<g>
		<path class="st2" d="M47.167,24.423c-2.317,0-3.813-1.255-4.779-2.655v6.251h-1.858V11.68h1.858v2.51
			c1.014-1.496,2.486-2.776,4.779-2.776c2.993,0,5.961,2.365,5.961,6.492C53.128,22.009,50.184,24.423,47.167,24.423z
			 M46.829,13.079c-2.317,0-4.513,1.931-4.513,4.827c0,2.92,2.196,4.851,4.513,4.851c2.413,0,4.393-1.786,4.393-4.827
			C51.221,14.962,49.194,13.079,46.829,13.079z"/>
		<path class="st2" d="M56.494,14.069l-0.555-1.52c1.376-0.628,2.727-1.038,4.537-1.038c3.403,0,5.31,1.738,5.31,5.02v7.627H64
			v-1.883c-0.869,1.134-2.317,2.148-4.513,2.148c-2.317,0-4.658-1.303-4.658-3.91c0-2.655,2.172-4.055,5.334-4.055
			c1.593,0,2.727,0.217,3.838,0.531v-0.434c0-2.244-1.376-3.403-3.717-3.403C58.811,13.152,57.653,13.538,56.494,14.069z
			 M56.711,20.441c0,1.593,1.448,2.51,3.138,2.51c2.293,0,4.176-1.4,4.176-3.379v-1.207c-0.917-0.266-2.148-0.531-3.669-0.531
			C58.015,17.834,56.711,18.848,56.711,20.441z"/>
		<path class="st2" d="M73.388,24.399c-1.786,0-3.765-0.7-5.165-1.834l0.941-1.327c1.351,1.014,2.848,1.593,4.32,1.593
			c1.496,0,2.582-0.772,2.582-1.979v-0.048c0-1.255-1.472-1.738-3.113-2.196c-1.955-0.555-4.127-1.231-4.127-3.524v-0.048
			c0-2.148,1.786-3.572,4.248-3.572c1.52,0,3.21,0.531,4.489,1.376l-0.845,1.4c-1.158-0.748-2.486-1.207-3.693-1.207
			c-1.472,0-2.413,0.772-2.413,1.81v0.048c0,1.183,1.545,1.641,3.21,2.148c1.931,0.579,4.006,1.328,4.006,3.572v0.048
			C77.829,23.023,75.874,24.399,73.388,24.399z"/>
		<path class="st2" d="M84.804,24.399c-1.786,0-3.765-0.7-5.165-1.834l0.941-1.327c1.351,1.014,2.848,1.593,4.32,1.593
			c1.496,0,2.582-0.772,2.582-1.979v-0.048c0-1.255-1.472-1.738-3.113-2.196c-1.955-0.555-4.127-1.231-4.127-3.524v-0.048
			c0-2.148,1.786-3.572,4.248-3.572c1.52,0,3.21,0.531,4.489,1.376l-0.845,1.4c-1.158-0.748-2.486-1.207-3.693-1.207
			c-1.472,0-2.413,0.772-2.413,1.81v0.048c0,1.183,1.545,1.641,3.21,2.148c1.931,0.579,4.006,1.328,4.006,3.572v0.048
			C89.244,23.023,87.289,24.399,84.804,24.399z"/>
		<path class="st2" d="M92.261,24.157V6.539h1.858v17.619H92.261z"/>
		<path class="st2" d="M103.918,24.568c-1.062,2.583-2.269,3.524-4.151,3.524c-1.038,0-1.81-0.217-2.655-0.628l0.628-1.472
			c0.603,0.314,1.158,0.459,1.955,0.459c1.11,0,1.81-0.579,2.558-2.341L96.58,11.68h2.052l4.537,10.402l4.006-10.402h1.979
			L103.918,24.568z"/>
		<path class="st1" d="M126.253,24.447c-3.741,0-6.468-2.944-6.468-6.492s2.751-6.541,6.516-6.541c3.741,0,6.492,2.944,6.492,6.492
			C132.794,21.454,130.019,24.447,126.253,24.447z M126.253,13.055c-2.703,0-4.561,2.148-4.561,4.851
			c0,2.703,1.979,4.875,4.61,4.875c2.703,0,4.586-2.148,4.586-4.827C130.887,15.227,128.884,13.055,126.253,13.055z"/>
		<circle class="st1" cx="110.349" cy="23.102" r="1.207"/>
		<path class="st1" d="M115.158,24.157h1.858V11.68h-1.858V24.157z M116.087,9.188c0.666,0,1.207-0.54,1.207-1.207
			c0-0.666-0.54-1.207-1.207-1.207c-0.666,0-1.207,0.54-1.207,1.207C114.88,8.648,115.421,9.188,116.087,9.188z"/>
	</g>
</g>
</svg>
