<?xml version="1.0" encoding="utf-8"?>
<!-- Generator: Adobe Illustrator 21.0.1, SVG Export Plug-In . SVG Version: 6.00 Build 0)  -->
<svg version="1.1" id="Layer_1" xmlns="http://www.w3.org/2000/svg" xmlns:xlink="http://www.w3.org/1999/xlink" x="0px" y="0px"
	 viewBox="0 0 159 37" style="enable-background:new 0 0 159 37;" xml:space="preserve">
<style type="text/css">
	.st0{fill:#202E46;}
	.st1{fill:#9BBDAA;}
	.st2{fill:#EC0044;}
	.st3{fill:#00A79D;}
	.st4{fill:#EA3F67;}
</style>
<g>
	<g>
		<polygon class="st4" points="12.124,22.772 6.505,7.629 1.283,7.629 9.973,29.283 14.152,29.283 22.843,7.629 17.744,7.629 		"/>
		<path class="st4" d="M38.52,29.129V15.093l-6.05,9.183h-0.123l-5.99-9.091v13.944h-4.637v-21.5h5.097l5.652,9.092l5.652-9.092
			h5.097v21.5H38.52z"/>
	</g>
	<g>
		<path class="st0" d="M57.164,29.091v-2.429c-0.98,1.448-2.405,2.685-4.624,2.685c-2.896,0-5.768-2.288-5.768-6.282
			c0-3.97,2.873-6.305,5.768-6.305c2.242,0,3.69,1.215,4.624,2.569v-7.286h1.798v17.047H57.164z M52.867,18.372
			c-2.335,0-4.25,1.728-4.25,4.67c0,2.872,1.962,4.694,4.25,4.694c2.241,0,4.367-1.868,4.367-4.694
			C57.234,20.24,55.109,18.372,52.867,18.372z"/>
		<path class="st0" d="M62.508,19.329l-0.538-1.471c1.331-0.607,2.639-1.004,4.391-1.004c3.293,0,5.137,1.681,5.137,4.858v7.379
			H69.77v-1.822c-0.84,1.098-2.241,2.078-4.367,2.078c-2.242,0-4.507-1.261-4.507-3.783c0-2.569,2.101-3.924,5.161-3.924
			c1.542,0,2.639,0.21,3.713,0.514v-0.42c0-2.172-1.331-3.293-3.596-3.293C64.75,18.442,63.629,18.816,62.508,19.329z
			 M62.718,25.494c0,1.541,1.401,2.429,3.035,2.429c2.219,0,4.04-1.355,4.04-3.269v-1.167c-0.888-0.257-2.079-0.514-3.55-0.514
			C63.979,22.973,62.718,23.953,62.718,25.494z"/>
		<path class="st0" d="M78.151,29.324c-1.728,0-3.643-0.677-4.998-1.775l0.911-1.284c1.307,0.981,2.756,1.541,4.18,1.541
			c1.447,0,2.499-0.747,2.499-1.915v-0.046c0-1.215-1.425-1.682-3.013-2.125c-1.892-0.537-3.993-1.191-3.993-3.41v-0.047
			c0-2.078,1.728-3.456,4.11-3.456c1.471,0,3.105,0.514,4.343,1.331l-0.817,1.355c-1.121-0.724-2.406-1.167-3.573-1.167
			c-1.425,0-2.335,0.747-2.335,1.751v0.047c0,1.144,1.495,1.588,3.105,2.078c1.869,0.561,3.877,1.285,3.877,3.456v0.047
			C82.448,27.993,80.556,29.324,78.151,29.324z"/>
		<path class="st0" d="M86.415,29.091h-1.799V12.043h1.799v7.076c0.794-1.308,2.054-2.359,4.133-2.359
			c2.919,0,4.624,1.962,4.624,4.834v7.496h-1.798v-7.053c0-2.242-1.214-3.643-3.339-3.643c-2.079,0-3.62,1.518-3.62,3.783V29.091z"
			/>
		<path class="st0" d="M104.253,29.348c-2.242,0-3.69-1.214-4.624-2.568v2.312H97.83V12.043h1.799v7.403
			c0.98-1.448,2.405-2.686,4.624-2.686c2.896,0,5.768,2.289,5.768,6.282C110.02,27.013,107.172,29.348,104.253,29.348z
			 M103.926,18.372c-2.242,0-4.367,1.868-4.367,4.67c0,2.826,2.124,4.694,4.367,4.694c2.335,0,4.25-1.728,4.25-4.67
			C108.176,20.193,106.214,18.372,103.926,18.372z"/>
		<path class="st0" d="M117.676,29.371c-3.62,0-6.258-2.849-6.258-6.282c0-3.433,2.662-6.329,6.305-6.329
			c3.62,0,6.282,2.849,6.282,6.282S121.32,29.371,117.676,29.371z M117.676,18.349c-2.615,0-4.413,2.078-4.413,4.694
			c0,2.615,1.914,4.717,4.46,4.717c2.616,0,4.436-2.078,4.436-4.67C122.16,20.451,120.222,18.349,117.676,18.349z"/>
		<path class="st0" d="M126.781,19.329l-0.538-1.471c1.331-0.607,2.639-1.004,4.391-1.004c3.293,0,5.137,1.681,5.137,4.858v7.379
			h-1.728v-1.822c-0.84,1.098-2.241,2.078-4.367,2.078c-2.242,0-4.507-1.261-4.507-3.783c0-2.569,2.101-3.924,5.161-3.924
			c1.542,0,2.639,0.21,3.713,0.514v-0.42c0-2.172-1.331-3.293-3.596-3.293C129.023,18.442,127.902,18.816,126.781,19.329z
			 M126.991,25.494c0,1.541,1.401,2.429,3.035,2.429c2.219,0,4.04-1.355,4.04-3.269v-1.167c-0.888-0.257-2.079-0.514-3.55-0.514
			C128.252,22.973,126.991,23.953,126.991,25.494z"/>
		<path class="st0" d="M140.229,29.091h-1.799V17.018h1.799v3.153c0.887-2.008,2.638-3.456,4.927-3.363v1.938h-0.14
			c-2.639,0-4.787,1.892-4.787,5.534V29.091z"/>
		<path class="st0" d="M155.919,29.091v-2.429c-0.98,1.448-2.405,2.685-4.624,2.685c-2.896,0-5.768-2.288-5.768-6.282
			c0-3.97,2.873-6.305,5.768-6.305c2.242,0,3.69,1.215,4.624,2.569v-7.286h1.798v17.047H155.919z M151.623,18.372
			c-2.335,0-4.25,1.728-4.25,4.67c0,2.872,1.962,4.694,4.25,4.694c2.241,0,4.367-1.868,4.367-4.694
			C155.989,20.24,153.864,18.372,151.623,18.372z"/>
	</g>
</g>
</svg>
