<?xml version="1.0" encoding="utf-8"?>
<!-- Generator: Adobe Illustrator 21.0.2, SVG Export Plug-In . SVG Version: 6.00 Build 0)  -->
<svg version="1.1" id="Layer_1" xmlns="http://www.w3.org/2000/svg" xmlns:xlink="http://www.w3.org/1999/xlink" x="0px" y="0px"
	 viewBox="0 0 166.333 37" style="enable-background:new 0 0 166.333 37;" xml:space="preserve">
<style type="text/css">
	.st0{fill:#202E46;}
	.st1{fill:#EA3F67;}
	.st2{fill:#00A79D;}
</style>
<g>
	<g>
		<path class="st0" d="M61.523,28.508v-2.295c-0.926,1.368-2.273,2.537-4.369,2.537c-2.736,0-5.451-2.162-5.451-5.936
			c0-3.751,2.715-5.958,5.451-5.958c2.119,0,3.486,1.148,4.369,2.427v-6.885h1.699v16.109H61.523z M57.463,18.379
			c-2.206,0-4.016,1.633-4.016,4.413c0,2.714,1.854,4.435,4.016,4.435c2.118,0,4.126-1.765,4.126-4.435
			C61.589,20.144,59.581,18.379,57.463,18.379z"/>
		<path class="st0" d="M66.573,19.284l-0.508-1.39c1.258-0.574,2.494-0.949,4.149-0.949c3.111,0,4.854,1.589,4.854,4.59v6.973
			h-1.633v-1.721c-0.794,1.037-2.118,1.964-4.126,1.964c-2.119,0-4.259-1.191-4.259-3.575c0-2.427,1.986-3.707,4.876-3.707
			c1.457,0,2.494,0.199,3.509,0.485v-0.397c0-2.052-1.258-3.111-3.398-3.111C68.691,18.445,67.632,18.798,66.573,19.284z
			 M66.771,25.109c0,1.456,1.324,2.295,2.868,2.295c2.096,0,3.818-1.28,3.818-3.089v-1.103c-0.839-0.243-1.964-0.485-3.354-0.485
			C67.963,22.726,66.771,23.653,66.771,25.109z"/>
		<path class="st0" d="M81.355,28.728c-1.633,0-3.443-0.64-4.723-1.677l0.861-1.214c1.235,0.927,2.604,1.456,3.95,1.456
			c1.368,0,2.361-0.706,2.361-1.81v-0.044c0-1.148-1.346-1.589-2.847-2.008c-1.787-0.508-3.773-1.126-3.773-3.222v-0.044
			c0-1.964,1.633-3.266,3.884-3.266c1.39,0,2.934,0.485,4.104,1.258l-0.772,1.28c-1.059-0.684-2.273-1.103-3.377-1.103
			c-1.346,0-2.206,0.706-2.206,1.655v0.044c0,1.081,1.412,1.501,2.934,1.964c1.766,0.53,3.663,1.214,3.663,3.266v0.044
			C85.415,27.471,83.627,28.728,81.355,28.728z"/>
		<path class="st0" d="M89.163,28.508h-1.7V12.399h1.7v6.687c0.75-1.236,1.941-2.229,3.905-2.229c2.758,0,4.369,1.854,4.369,4.568
			v7.083h-1.699v-6.664c0-2.118-1.147-3.442-3.155-3.442c-1.964,0-3.42,1.434-3.42,3.575V28.508z"/>
		<path class="st0" d="M106.019,28.75c-2.119,0-3.486-1.147-4.369-2.427v2.185h-1.7V12.399h1.7v6.995
			c0.926-1.368,2.273-2.538,4.369-2.538c2.736,0,5.45,2.163,5.45,5.936C111.469,26.544,108.778,28.75,106.019,28.75z M105.71,18.379
			c-2.119,0-4.126,1.765-4.126,4.413c0,2.67,2.007,4.435,4.126,4.435c2.206,0,4.016-1.633,4.016-4.413
			C109.726,20.1,107.873,18.379,105.71,18.379z"/>
		<path class="st0" d="M118.704,28.773c-3.42,0-5.914-2.692-5.914-5.936c0-3.244,2.515-5.98,5.958-5.98
			c3.42,0,5.936,2.692,5.936,5.936S122.146,28.773,118.704,28.773z M118.704,18.357c-2.471,0-4.17,1.964-4.17,4.436
			c0,2.471,1.809,4.457,4.215,4.457c2.472,0,4.192-1.964,4.192-4.413C122.941,20.343,121.109,18.357,118.704,18.357z"/>
		<path class="st0" d="M127.307,19.284l-0.508-1.39c1.258-0.574,2.494-0.949,4.149-0.949c3.111,0,4.854,1.589,4.854,4.59v6.973
			h-1.633v-1.721c-0.794,1.037-2.118,1.964-4.126,1.964c-2.119,0-4.259-1.191-4.259-3.575c0-2.427,1.986-3.707,4.876-3.707
			c1.457,0,2.494,0.199,3.509,0.485v-0.397c0-2.052-1.258-3.111-3.398-3.111C129.425,18.445,128.366,18.798,127.307,19.284z
			 M127.506,25.109c0,1.456,1.324,2.295,2.868,2.295c2.096,0,3.818-1.28,3.818-3.089v-1.103c-0.839-0.243-1.964-0.485-3.354-0.485
			C128.697,22.726,127.506,23.653,127.506,25.109z"/>
		<path class="st0" d="M140.015,28.508h-1.7V17.099h1.7v2.979c0.838-1.898,2.493-3.266,4.656-3.178v1.832h-0.132
			c-2.494,0-4.524,1.787-4.524,5.23V28.508z"/>
		<path class="st0" d="M154.841,28.508v-2.295c-0.926,1.368-2.273,2.537-4.369,2.537c-2.736,0-5.451-2.162-5.451-5.936
			c0-3.751,2.715-5.958,5.451-5.958c2.119,0,3.486,1.148,4.369,2.427v-6.885h1.699v16.109H154.841z M150.781,18.379
			c-2.206,0-4.016,1.633-4.016,4.413c0,2.714,1.854,4.435,4.016,4.435c2.118,0,4.126-1.765,4.126-4.435
			C154.907,20.144,152.899,18.379,150.781,18.379z"/>
	</g>
	<path class="st1" d="M41.876,8.227l-5.341,8.591L31.239,8.3l-4.861,12.113v8.131h4.381V15.368l5.66,8.59h0.116l5.716-8.678v13.263
		h4.44V8.227H41.876z M25.348,8.227l-5.31,14.309l-5.31-14.309H9.793l8.212,20.462h3.949l8.212-20.462H25.348z"/>
</g>
</svg>
