<?xml version="1.0" encoding="utf-8"?>
<!-- Generator: Adobe Illustrator 21.0.0, SVG Export Plug-In . SVG Version: 6.00 Build 0)  -->
<svg version="1.1" id="Layer_1" xmlns="http://www.w3.org/2000/svg" xmlns:xlink="http://www.w3.org/1999/xlink" x="0px" y="0px"
	 viewBox="0 0 27 27" style="enable-background:new 0 0 27 27;" xml:space="preserve">
<style type="text/css">
	.st0{fill:#75C05B;stroke:#FFFFFF;stroke-miterlimit:10;}
	.st1{fill:#FFFFFF;}
	.st2{fill:#E1B86F;stroke:#FFFFFF;stroke-miterlimit:10;}
</style>
<g>
	<circle class="st0" cx="13.5" cy="13.5" r="12.5"/>
	<path class="st1" d="M20.802,12.726c-0.07-1.325-1.394-1.813-1.394-1.813c-1.116,1.185-0.139,2.998-0.139,2.998
		c-0.558,0.558-1.604,0.488-1.604,0.488H6.021c0,0-1.046,5.648,5.787,5.648s8.715-5.438,8.715-5.438
		c2.44,0.209,2.44-1.464,2.44-1.464C22.336,12.378,20.802,12.726,20.802,12.726z M9.514,17.746c-0.539,0-0.976-0.437-0.976-0.976
		c0-0.539,0.437-0.976,0.976-0.976c0.539,0,0.976,0.437,0.976,0.976C10.49,17.309,10.053,17.746,9.514,17.746z M8.646,12.029H6.763
		v1.883h1.883V12.029z M10.937,12.029H9.054v1.883h1.883V12.029z M13.227,12.029h-1.883v1.883h1.883V12.029z M15.518,12.029h-1.883
		v1.883h1.883V12.029z M10.937,9.726H9.054v1.883h1.883V9.726z M13.227,9.726h-1.883v1.883h1.883V9.726z M15.518,9.726h-1.883v1.883
		h1.883V9.726z M15.518,7.423h-1.883v1.883h1.883V7.423z M17.809,12.029h-1.883v1.883h1.883V12.029z"/>
</g>
</svg>
